<svg width="18" height="18" viewBox="0 0 18 18" fill="none" xmlns="http://www.w3.org/2000/svg">
<path d="M13.168 2.50065H16.5013C16.7223 2.50065 16.9343 2.58845 17.0906 2.74473C17.2468 2.90101 17.3346 3.11297 17.3346 3.33398V16.6673C17.3346 16.8883 17.2468 17.1003 17.0906 17.2566C16.9343 17.4129 16.7223 17.5007 16.5013 17.5007H1.5013C1.28029 17.5007 1.06833 17.4129 0.912046 17.2566C0.755766 17.1003 0.667969 16.8883 0.667969 16.6673V3.33398C0.667969 3.11297 0.755766 2.90101 0.912046 2.74473C1.06833 2.58845 1.28029 2.50065 1.5013 2.50065H4.83464V0.833984H6.5013V2.50065H11.5013V0.833984H13.168V2.50065ZM15.668 9.16732H2.33464V15.834H15.668V9.16732ZM11.5013 4.16732H6.5013V5.83398H4.83464V4.16732H2.33464V7.50065H15.668V4.16732H13.168V5.83398H11.5013V4.16732ZM4.0013 10.834H5.66797V12.5007H4.0013V10.834ZM8.16797 10.834H9.83464V12.5007H8.16797V10.834ZM12.3346 10.834H14.0013V12.5007H12.3346V10.834Z" fill="black"/>
</svg>
