<svg width="20" height="18" viewBox="0 0 20 18" fill="none" xmlns="http://www.w3.org/2000/svg">
<path fill-rule="evenodd" clip-rule="evenodd" d="M9.08948 0.637675C9.73243 0.798414 10.1233 1.44994 9.96261 2.09289L9.43537 4.20185H12.9615L13.6343 1.5108C13.795 0.86785 14.4465 0.476937 15.0895 0.637675C15.7324 0.798414 16.1233 1.44994 15.9626 2.09289L15.4354 4.20185H18.3984C19.0612 4.20185 19.5984 4.7391 19.5984 5.40185C19.5984 6.06459 19.0612 6.60185 18.3984 6.60185H14.8354L13.6354 11.4018H15.9984C16.6612 11.4018 17.1984 11.9391 17.1984 12.6018C17.1984 13.2646 16.6612 13.8018 15.9984 13.8018H13.0354L12.3626 16.4929C12.2019 17.1358 11.5503 17.5268 10.9074 17.366C10.2644 17.2053 9.87353 16.5538 10.0343 15.9108L10.5615 13.8018H7.03537L6.36261 16.4929C6.20187 17.1358 5.55035 17.5268 4.90739 17.366C4.26444 17.2053 3.87353 16.5538 4.03427 15.9108L4.56151 13.8018H1.59844C0.935696 13.8018 0.398438 13.2646 0.398438 12.6018C0.398438 11.9391 0.935696 11.4018 1.59844 11.4018H5.16151L6.36151 6.60185H3.99844C3.3357 6.60185 2.79844 6.06459 2.79844 5.40185C2.79844 4.7391 3.3357 4.20185 3.99844 4.20185H6.96151L7.63427 1.5108C7.79501 0.86785 8.44653 0.476937 9.08948 0.637675ZM8.83537 6.60185L7.63537 11.4018H11.1615L12.3615 6.60185H8.83537Z" fill="#4B5563"/>
</svg>
